# xmcd CD database file generated by Grip 2.7
# 
# Track frame offsets:
#       150
#       21452
#       40335
#       63960
#       85522
#       101892
#       124929
#       162007
#       174000
# 
# Disc length: 2795 seconds
# 
# Revision: 3
# Processed by: cddbd v1.4b41PL1 Copyright (c) Steve Scherf et al.
# Submitted via: Grip 2.7
# 
DISCID=690ae909
DTITLE=John Lee Hooker - If You Miss 'Im...I Got 'Im
DYEAR=1900
DGENRE=
TTITLE0=The Hookers (If You Miss 'Im...I Got 'Im)
TTITLE1=Baby, I Love You
TTITLE2=Lonesome Mood
TTITLE3=Bang Bang Bang Bang
TTITLE4=If You Take Care of Me, I'll Take Care of You
TTITLE5=Baby, Be Strong
TTITLE6=I Wanna Be Your Puppy, Baby
TTITLE7=I Don't Care When You Go
TTITLE8=Have Mercy On My Soul!
EXTD=
EXTT0=
EXTT1=
EXTT2=
EXTT3=
EXTT4=
EXTT5=
EXTT6=
EXTT7=
EXTT8=
PLAYORDER=
